<svg
                version="1.0"
                xmlns="http://www.w3.org/2000/svg"
                viewBox="0 0 1024 1024"
                preserveAspectRatio="xMidYMid meet"
                width="1024"
                height="1024"
              >
                <g
                  transform="translate(0,1024) scale(0.1,-0.1)"
                  fill="#3b82f6"
                  stroke="none"
                >
                  <path
                    d="M4790 9443 c-343 -20 -761 -103 -1101 -219 -1055 -358 -1924 -1099
                  -2425 -2069 -240 -464 -395 -960 -464 -1485 -27 -204 -37 -606 -21 -830 42
                  -575 170 -1058 420 -1585 166 -349 429 -734 710 -1040 204 -221 507 -480 761
                  -651 674 -452 1391 -692 2232 -746 448 -29 1011 37 1474 173 275 80 670 253
                  949 414 330 191 686 471 960 757 422 438 776 1026 963 1598 143 438 207 812
                  219 1285 18 701 -122 1370 -410 1965 -345 711 -847 1287 -1507 1727 -595 397
                  -1330 644 -2089 703 -122 9 -534 11 -671 3z m665 -213 c363 -31 737 -109 1074
                  -225 1480 -509 2521 -1808 2706 -3375 23 -189 30 -579 16 -780 -33 -456 -137
                  -900 -301 -1292 -565 -1342 -1792 -2286 -3240 -2492 -166 -24 -449 -51 -456
                  -43 -2 2 45 34 104 73 221 143 436 315 657 525 74 71 177 152 315 248 527 370
                  802 592 1106 895 462 462 760 919 1013 1555 71 176 138 383 147 451 8 63 -1
                  64 -82 12 -160 -104 -490 -407 -737 -677 -288 -315 -608 -754 -892 -1225 -125
                  -207 -259 -415 -273 -424 -5 -3 28 68 73 157 45 89 109 227 142 307 78 185
                  204 539 233 654 22 88 23 90 95 160 51 50 107 124 190 251 135 206 178 265
                  270 365 37 39 64 77 62 83 -19 57 -211 -38 -340 -168 l-68 -68 37 84 c69 160
                  202 495 280 709 43 118 100 258 126 310 26 52 44 98 39 103 -4 4 -53 17 -107
                  28 -130 27 -176 19 -233 -44 -60 -65 -176 -144 -379 -258 -183 -103 -183 -103
                  -178 -133 14 -73 56 -592 56 -681 l0 -40 -29 52 c-64 116 -143 203 -220 243
                  -41 20 -81 27 -81 12 0 -4 26 -60 59 -124 64 -127 98 -224 161 -458 23 -85 58
                  -190 77 -232 l35 -76 -25 -99 c-23 -92 -128 -396 -196 -565 -66 -167 -312
                  -637 -369 -708 l-20 -25 14 60 c129 549 53 1271 -204 1950 -141 372 -395 886
                  -424 857 -20 -20 -28 -115 -39 -462 -18 -561 2 -921 71 -1252 27 -134 106
                  -404 204 -703 131 -402 152 -496 143 -666 -8 -164 -7 -162 -190 -344 -291
                  -289 -620 -526 -926 -668 -85 -39 -87 -39 -171 -33 -182 13 -469 63 -705 123
                  -493 125 -1012 374 -1430 686 -261 195 -573 494 -757 725 -494 619 -787 1324
                  -884 2122 -20 158 -26 694 -11 822 l8 66 87 27 c216 67 608 250 847 394 233
                  141 453 308 669 507 449 413 543 474 1045 683 332 138 361 154 636 347 162
                  114 196 131 238 120 35 -8 47 -46 58 -175 17 -215 34 -262 191 -526 52 -88
                  102 -179 111 -203 23 -57 22 -119 -3 -159 -27 -45 -77 -74 -285 -169 -380
                  -172 -473 -231 -656 -413 -144 -145 -171 -190 -149 -257 36 -107 274 -273 501
                  -348 364 -121 825 -162 1729 -155 241 2 440 6 442 9 2 3 1 56 -2 118 l-5 113
                  -86 33 c-109 41 -211 105 -352 220 -162 131 -269 237 -297 293 -55 109 -30
                  234 56 280 51 28 245 78 384 98 57 9 156 15 220 14 l115 -1 7 43 c17 109 13
                  122 -49 175 -138 119 -239 187 -468 314 -405 225 -583 355 -900 659 -190 182
                  -316 272 -424 301 -61 16 -196 13 -261 -6 -87 -25 -184 -78 -311 -169 -189
                  -136 -311 -202 -823 -445 -288 -136 -442 -246 -736 -525 -358 -339 -637 -534
                  -1075 -750 -187 -93 -363 -165 -400 -165 -10 0 -6 31 15 135 240 1150 939
                  2113 1960 2700 168 96 237 131 407 203 440 188 880 295 1358 331 161 12 522
                  12 660 1z"
                  />
                  <path
                    d="M6817 6955 c-44 -92 -97 -381 -97 -529 0 -172 20 -224 179 -466 55
                  -84 122 -194 148 -245 l47 -93 81 -22 c83 -22 237 -89 249 -108 4 -6 36 -8 84
                  -5 62 4 103 -1 212 -25 74 -17 184 -35 244 -41 199 -20 532 -9 558 17 12 12
                  -1 33 -86 147 -85 112 -181 204 -256 244 -157 84 -368 38 -526 -115 -70 -67
                  -79 -71 -37 -15 58 77 153 167 262 249 127 96 177 155 246 292 59 118 155 372
                  155 410 l0 32 -52 -7 c-181 -24 -423 -87 -518 -135 -146 -73 -241 -222 -310
                  -485 -37 -140 -60 -264 -60 -324 0 -33 -3 -42 -10 -31 -15 23 -12 258 5 405
                  29 261 14 404 -55 519 -67 112 -324 329 -426 360 -16 5 -24 -1 -37 -29z"
                  />
                  <path
                    d="M6230 6224 c-114 -15 -317 -58 -330 -70 -13 -13 -2 -28 100 -127 195
                  -190 353 -296 495 -332 33 -8 146 -22 250 -30 105 -8 212 -17 238 -21 l48 -7
                  -10 26 c-45 117 -173 311 -265 402 -110 108 -220 153 -396 159 -52 2 -111 2
                  -130 0z"
                  />
                  <path
                    d="M6752 5591 c-34 -16 -47 -30 -64 -67 -18 -43 -20 -61 -16 -188 3 -82
                  13 -172 23 -215 l17 -73 32 6 c40 7 223 98 352 175 120 71 233 154 265 195
                  l23 29 -22 17 c-68 55 -315 125 -477 135 -77 5 -96 3 -133 -14z"
                  />
                </g>
              </svg>

